<svg width="240" height="84" viewBox="0 0 240 84" fill="none" xmlns="http://www.w3.org/2000/svg">
<g filter="url(#filter0_d_3289_1909)">
<rect x="4.57422" y="0.506348" width="231.365" height="75" rx="37.5" fill="#212121"/>
<path d="M85.928 23.296H82.436L81.836 25H80.408L83.396 16.648H84.98L87.968 25H86.528L85.928 23.296ZM85.544 22.18L84.188 18.304L82.82 22.18H85.544ZM91.3432 23.776L93.2152 18.388H94.6672L92.1472 25H90.5152L88.0072 18.388H89.4712L91.3432 23.776ZM94.7652 21.664C94.7652 21 94.9012 20.412 95.1732 19.9C95.4533 19.388 95.8293 18.992 96.3013 18.712C96.7813 18.424 97.3093 18.28 97.8853 18.28C98.4053 18.28 98.8573 18.384 99.2413 18.592C99.6333 18.792 99.9453 19.044 100.177 19.348V18.388H101.557V25H100.177V24.016C99.9453 24.328 99.6293 24.588 99.2293 24.796C98.8293 25.004 98.3733 25.108 97.8613 25.108C97.2933 25.108 96.7733 24.964 96.3013 24.676C95.8293 24.38 95.4533 23.972 95.1732 23.452C94.9012 22.924 94.7652 22.328 94.7652 21.664ZM100.177 21.688C100.177 21.232 100.081 20.836 99.8893 20.5C99.7053 20.164 99.4613 19.908 99.1573 19.732C98.8533 19.556 98.5253 19.468 98.1733 19.468C97.8213 19.468 97.4933 19.556 97.1893 19.732C96.8853 19.9 96.6373 20.152 96.4452 20.488C96.2613 20.816 96.1693 21.208 96.1693 21.664C96.1693 22.12 96.2613 22.52 96.4452 22.864C96.6373 23.208 96.8853 23.472 97.1893 23.656C97.5013 23.832 97.8293 23.92 98.1733 23.92C98.5253 23.92 98.8533 23.832 99.1573 23.656C99.4613 23.48 99.7053 23.224 99.8893 22.888C100.081 22.544 100.177 22.144 100.177 21.688ZM103.57 17.512C103.322 17.512 103.114 17.428 102.946 17.26C102.778 17.092 102.694 16.884 102.694 16.636C102.694 16.388 102.778 16.18 102.946 16.012C103.114 15.844 103.322 15.76 103.57 15.76C103.81 15.76 104.014 15.844 104.182 16.012C104.35 16.18 104.434 16.388 104.434 16.636C104.434 16.884 104.35 17.092 104.182 17.26C104.014 17.428 103.81 17.512 103.57 17.512ZM104.242 18.388V25H102.874V18.388H104.242ZM106.926 16.12V25H105.558V16.12H106.926ZM107.786 21.664C107.786 21 107.922 20.412 108.194 19.9C108.474 19.388 108.85 18.992 109.322 18.712C109.802 18.424 110.33 18.28 110.906 18.28C111.426 18.28 111.878 18.384 112.262 18.592C112.654 18.792 112.966 19.044 113.198 19.348V18.388H114.578V25H113.198V24.016C112.966 24.328 112.65 24.588 112.25 24.796C111.85 25.004 111.394 25.108 110.882 25.108C110.314 25.108 109.794 24.964 109.322 24.676C108.85 24.38 108.474 23.972 108.194 23.452C107.922 22.924 107.786 22.328 107.786 21.664ZM113.198 21.688C113.198 21.232 113.102 20.836 112.91 20.5C112.726 20.164 112.482 19.908 112.178 19.732C111.874 19.556 111.546 19.468 111.194 19.468C110.842 19.468 110.514 19.556 110.21 19.732C109.906 19.9 109.658 20.152 109.466 20.488C109.282 20.816 109.19 21.208 109.19 21.664C109.19 22.12 109.282 22.52 109.466 22.864C109.658 23.208 109.906 23.472 110.21 23.656C110.522 23.832 110.85 23.92 111.194 23.92C111.546 23.92 111.874 23.832 112.178 23.656C112.482 23.48 112.726 23.224 112.91 22.888C113.102 22.544 113.198 22.144 113.198 21.688ZM117.263 19.372C117.495 19.052 117.811 18.792 118.211 18.592C118.619 18.384 119.071 18.28 119.567 18.28C120.151 18.28 120.679 18.42 121.151 18.7C121.623 18.98 121.995 19.38 122.267 19.9C122.539 20.412 122.675 21 122.675 21.664C122.675 22.328 122.539 22.924 122.267 23.452C121.995 23.972 121.619 24.38 121.139 24.676C120.667 24.964 120.143 25.108 119.567 25.108C119.055 25.108 118.599 25.008 118.199 24.808C117.807 24.608 117.495 24.352 117.263 24.04V25H115.895V16.12H117.263V19.372ZM121.283 21.664C121.283 21.208 121.187 20.816 120.995 20.488C120.811 20.152 120.563 19.9 120.251 19.732C119.947 19.556 119.619 19.468 119.267 19.468C118.923 19.468 118.595 19.556 118.283 19.732C117.979 19.908 117.731 20.164 117.539 20.5C117.355 20.836 117.263 21.232 117.263 21.688C117.263 22.144 117.355 22.544 117.539 22.888C117.731 23.224 117.979 23.48 118.283 23.656C118.595 23.832 118.923 23.92 119.267 23.92C119.619 23.92 119.947 23.832 120.251 23.656C120.563 23.472 120.811 23.208 120.995 22.864C121.187 22.52 121.283 22.12 121.283 21.664ZM124.916 16.12V25H123.548V16.12H124.916ZM132.292 21.532C132.292 21.78 132.276 22.004 132.244 22.204H127.192C127.232 22.732 127.428 23.156 127.78 23.476C128.132 23.796 128.564 23.956 129.076 23.956C129.812 23.956 130.332 23.648 130.636 23.032H132.112C131.912 23.64 131.548 24.14 131.02 24.532C130.5 24.916 129.852 25.108 129.076 25.108C128.444 25.108 127.876 24.968 127.372 24.688C126.876 24.4 126.484 24 126.196 23.488C125.916 22.968 125.776 22.368 125.776 21.688C125.776 21.008 125.912 20.412 126.184 19.9C126.464 19.38 126.852 18.98 127.348 18.7C127.852 18.42 128.428 18.28 129.076 18.28C129.7 18.28 130.256 18.416 130.744 18.688C131.232 18.96 131.612 19.344 131.884 19.84C132.156 20.328 132.292 20.892 132.292 21.532ZM130.864 21.1C130.856 20.596 130.676 20.192 130.324 19.888C129.972 19.584 129.536 19.432 129.016 19.432C128.544 19.432 128.14 19.584 127.804 19.888C127.468 20.184 127.268 20.588 127.204 21.1H130.864ZM138.663 25.108C138.039 25.108 137.475 24.968 136.971 24.688C136.467 24.4 136.071 24 135.783 23.488C135.495 22.968 135.351 22.368 135.351 21.688C135.351 21.016 135.499 20.42 135.795 19.9C136.091 19.38 136.495 18.98 137.007 18.7C137.519 18.42 138.091 18.28 138.723 18.28C139.355 18.28 139.927 18.42 140.439 18.7C140.951 18.98 141.355 19.38 141.651 19.9C141.947 20.42 142.095 21.016 142.095 21.688C142.095 22.36 141.943 22.956 141.639 23.476C141.335 23.996 140.919 24.4 140.391 24.688C139.871 24.968 139.295 25.108 138.663 25.108ZM138.663 23.92C139.015 23.92 139.343 23.836 139.647 23.668C139.959 23.5 140.211 23.248 140.403 22.912C140.595 22.576 140.691 22.168 140.691 21.688C140.691 21.208 140.599 20.804 140.415 20.476C140.231 20.14 139.987 19.888 139.683 19.72C139.379 19.552 139.051 19.468 138.699 19.468C138.347 19.468 138.019 19.552 137.715 19.72C137.419 19.888 137.183 20.14 137.007 20.476C136.831 20.804 136.743 21.208 136.743 21.688C136.743 22.4 136.923 22.952 137.283 23.344C137.651 23.728 138.111 23.92 138.663 23.92ZM146.304 18.28C146.824 18.28 147.288 18.388 147.696 18.604C148.112 18.82 148.436 19.14 148.668 19.564C148.9 19.988 149.016 20.5 149.016 21.1V25H147.66V21.304C147.66 20.712 147.512 20.26 147.216 19.948C146.92 19.628 146.516 19.468 146.004 19.468C145.492 19.468 145.084 19.628 144.78 19.948C144.484 20.26 144.336 20.712 144.336 21.304V25H142.968V18.388H144.336V19.144C144.56 18.872 144.844 18.66 145.188 18.508C145.54 18.356 145.912 18.28 146.304 18.28ZM154.514 19.504V23.164C154.514 23.412 154.57 23.592 154.682 23.704C154.802 23.808 155.002 23.86 155.282 23.86H156.122V25H155.042C154.426 25 153.954 24.856 153.626 24.568C153.298 24.28 153.134 23.812 153.134 23.164V19.504H152.354V18.388H153.134V16.744H154.514V18.388H156.122V19.504H154.514ZM160.323 18.28C160.827 18.28 161.275 18.388 161.667 18.604C162.067 18.82 162.379 19.14 162.603 19.564C162.835 19.988 162.951 20.5 162.951 21.1V25H161.595V21.304C161.595 20.712 161.447 20.26 161.151 19.948C160.855 19.628 160.451 19.468 159.939 19.468C159.427 19.468 159.019 19.628 158.715 19.948C158.419 20.26 158.271 20.712 158.271 21.304V25H156.903V16.12H158.271V19.156C158.503 18.876 158.795 18.66 159.147 18.508C159.507 18.356 159.899 18.28 160.323 18.28ZM170.276 21.532C170.276 21.78 170.26 22.004 170.228 22.204H165.176C165.216 22.732 165.412 23.156 165.764 23.476C166.116 23.796 166.548 23.956 167.06 23.956C167.796 23.956 168.316 23.648 168.62 23.032H170.096C169.896 23.64 169.532 24.14 169.004 24.532C168.484 24.916 167.836 25.108 167.06 25.108C166.428 25.108 165.86 24.968 165.356 24.688C164.86 24.4 164.468 24 164.18 23.488C163.9 22.968 163.76 22.368 163.76 21.688C163.76 21.008 163.896 20.412 164.168 19.9C164.448 19.38 164.836 18.98 165.332 18.7C165.836 18.42 166.412 18.28 167.06 18.28C167.684 18.28 168.24 18.416 168.728 18.688C169.216 18.96 169.596 19.344 169.868 19.84C170.14 20.328 170.276 20.892 170.276 21.532ZM168.848 21.1C168.84 20.596 168.66 20.192 168.308 19.888C167.956 19.584 167.52 19.432 167 19.432C166.528 19.432 166.124 19.584 165.788 19.888C165.452 20.184 165.252 20.588 165.188 21.1H168.848Z" fill="white"/>
<path d="M91.928 50.808H85.256L84.152 54H80.624L86.648 37.224H90.56L96.584 54H93.032L91.928 50.808ZM91.016 48.12L88.592 41.112L86.168 48.12H91.016ZM101.716 42.624C102.148 42.016 102.74 41.512 103.492 41.112C104.26 40.696 105.132 40.488 106.108 40.488C107.244 40.488 108.268 40.768 109.18 41.328C110.108 41.888 110.836 42.688 111.364 43.728C111.908 44.752 112.18 45.944 112.18 47.304C112.18 48.664 111.908 49.872 111.364 50.928C110.836 51.968 110.108 52.776 109.18 53.352C108.268 53.928 107.244 54.216 106.108 54.216C105.132 54.216 104.268 54.016 103.516 53.616C102.78 53.216 102.18 52.712 101.716 52.104V60.336H98.3557V40.704H101.716V42.624ZM108.748 47.304C108.748 46.504 108.58 45.816 108.244 45.24C107.924 44.648 107.492 44.2 106.948 43.896C106.42 43.592 105.844 43.44 105.22 43.44C104.612 43.44 104.036 43.6 103.492 43.92C102.964 44.224 102.532 44.672 102.196 45.264C101.876 45.856 101.716 46.552 101.716 47.352C101.716 48.152 101.876 48.848 102.196 49.44C102.532 50.032 102.964 50.488 103.492 50.808C104.036 51.112 104.612 51.264 105.22 51.264C105.844 51.264 106.42 51.104 106.948 50.784C107.492 50.464 107.924 50.008 108.244 49.416C108.58 48.824 108.748 48.12 108.748 47.304ZM117.501 42.624C117.933 42.016 118.525 41.512 119.277 41.112C120.045 40.696 120.917 40.488 121.893 40.488C123.029 40.488 124.053 40.768 124.965 41.328C125.893 41.888 126.621 42.688 127.149 43.728C127.693 44.752 127.965 45.944 127.965 47.304C127.965 48.664 127.693 49.872 127.149 50.928C126.621 51.968 125.893 52.776 124.965 53.352C124.053 53.928 123.029 54.216 121.893 54.216C120.917 54.216 120.053 54.016 119.301 53.616C118.565 53.216 117.965 52.712 117.501 52.104V60.336H114.141V40.704H117.501V42.624ZM124.533 47.304C124.533 46.504 124.365 45.816 124.029 45.24C123.709 44.648 123.277 44.2 122.733 43.896C122.205 43.592 121.629 43.44 121.005 43.44C120.397 43.44 119.821 43.6 119.277 43.92C118.749 44.224 118.317 44.672 117.981 45.264C117.661 45.856 117.501 46.552 117.501 47.352C117.501 48.152 117.661 48.848 117.981 49.44C118.317 50.032 118.749 50.488 119.277 50.808C119.821 51.112 120.397 51.264 121.005 51.264C121.629 51.264 122.205 51.104 122.733 50.784C123.277 50.464 123.709 50.008 124.029 49.416C124.365 48.824 124.533 48.12 124.533 47.304ZM140.95 54.168C139.782 54.168 138.726 53.968 137.782 53.568C136.854 53.168 136.118 52.592 135.574 51.84C135.03 51.088 134.75 50.2 134.734 49.176H138.334C138.382 49.864 138.622 50.408 139.054 50.808C139.502 51.208 140.11 51.408 140.878 51.408C141.662 51.408 142.278 51.224 142.726 50.856C143.174 50.472 143.398 49.976 143.398 49.368C143.398 48.872 143.246 48.464 142.942 48.144C142.638 47.824 142.254 47.576 141.79 47.4C141.342 47.208 140.718 47 139.918 46.776C138.83 46.456 137.942 46.144 137.254 45.84C136.582 45.52 135.998 45.048 135.502 44.424C135.022 43.784 134.782 42.936 134.782 41.88C134.782 40.888 135.03 40.024 135.526 39.288C136.022 38.552 136.718 37.992 137.614 37.608C138.51 37.208 139.534 37.008 140.686 37.008C142.414 37.008 143.814 37.432 144.886 38.28C145.974 39.112 146.574 40.28 146.686 41.784H142.99C142.958 41.208 142.71 40.736 142.246 40.368C141.798 39.984 141.198 39.792 140.446 39.792C139.79 39.792 139.262 39.96 138.862 40.296C138.478 40.632 138.286 41.12 138.286 41.76C138.286 42.208 138.43 42.584 138.718 42.888C139.022 43.176 139.39 43.416 139.822 43.608C140.27 43.784 140.894 43.992 141.694 44.232C142.782 44.552 143.67 44.872 144.358 45.192C145.046 45.512 145.638 45.992 146.134 46.632C146.63 47.272 146.878 48.112 146.878 49.152C146.878 50.048 146.646 50.88 146.182 51.648C145.718 52.416 145.038 53.032 144.142 53.496C143.246 53.944 142.182 54.168 140.95 54.168ZM153.223 43.464V49.896C153.223 50.344 153.327 50.672 153.535 50.88C153.759 51.072 154.127 51.168 154.639 51.168H156.199V54H154.087C151.255 54 149.839 52.624 149.839 49.872V43.464H148.255V40.704H149.839V37.416H153.223V40.704H156.199V43.464H153.223ZM164.039 54.216C162.759 54.216 161.607 53.936 160.583 53.376C159.559 52.8 158.751 51.992 158.159 50.952C157.583 49.912 157.295 48.712 157.295 47.352C157.295 45.992 157.591 44.792 158.183 43.752C158.791 42.712 159.615 41.912 160.655 41.352C161.695 40.776 162.855 40.488 164.135 40.488C165.415 40.488 166.575 40.776 167.615 41.352C168.655 41.912 169.471 42.712 170.063 43.752C170.671 44.792 170.975 45.992 170.975 47.352C170.975 48.712 170.663 49.912 170.039 50.952C169.431 51.992 168.599 52.8 167.543 53.376C166.503 53.936 165.335 54.216 164.039 54.216ZM164.039 51.288C164.647 51.288 165.215 51.144 165.743 50.856C166.287 50.552 166.719 50.104 167.039 49.512C167.359 48.92 167.519 48.2 167.519 47.352C167.519 46.088 167.183 45.12 166.511 44.448C165.855 43.76 165.047 43.416 164.087 43.416C163.127 43.416 162.319 43.76 161.663 44.448C161.023 45.12 160.703 46.088 160.703 47.352C160.703 48.616 161.015 49.592 161.639 50.28C162.279 50.952 163.079 51.288 164.039 51.288ZM176.32 42.768C176.752 42.064 177.312 41.512 178 41.112C178.704 40.712 179.504 40.512 180.4 40.512V44.04H179.512C178.456 44.04 177.656 44.288 177.112 44.784C176.584 45.28 176.32 46.144 176.32 47.376V54H172.96V40.704H176.32V42.768ZM194.543 47.064C194.543 47.544 194.511 47.976 194.447 48.36H184.727C184.807 49.32 185.143 50.072 185.735 50.616C186.327 51.16 187.055 51.432 187.919 51.432C189.167 51.432 190.055 50.896 190.583 49.824H194.207C193.823 51.104 193.087 52.16 191.999 52.992C190.911 53.808 189.575 54.216 187.991 54.216C186.711 54.216 185.559 53.936 184.535 53.376C183.527 52.8 182.735 51.992 182.159 50.952C181.599 49.912 181.319 48.712 181.319 47.352C181.319 45.976 181.599 44.768 182.159 43.728C182.719 42.688 183.503 41.888 184.511 41.328C185.519 40.768 186.679 40.488 187.991 40.488C189.255 40.488 190.383 40.76 191.375 41.304C192.383 41.848 193.159 42.624 193.703 43.632C194.263 44.624 194.543 45.768 194.543 47.064ZM191.063 46.104C191.047 45.24 190.735 44.552 190.127 44.04C189.519 43.512 188.775 43.248 187.895 43.248C187.063 43.248 186.359 43.504 185.783 44.016C185.223 44.512 184.879 45.208 184.751 46.104H191.063Z" fill="white"/>
<path d="M65.9449 38.0063C65.9449 50.2285 56.1177 60.1313 44.0017 60.1313C31.8857 60.1313 22.0586 50.2285 22.0586 38.0063C22.0586 25.7842 31.8857 15.8813 44.0017 15.8813C56.1177 15.8813 65.9449 25.7842 65.9449 38.0063Z" stroke="#E3E3E3" stroke-width="0.75"/>
<path d="M47.5966 29.5688C47.6357 29.5688 47.6747 29.5688 47.716 29.5688C47.8118 30.7589 47.36 31.6481 46.8109 32.2921C46.2722 32.9315 45.5344 33.5518 44.3412 33.4577C44.2616 32.2846 44.7141 31.4614 45.2624 30.8189C45.771 30.2202 46.7033 29.6874 47.5966 29.5688Z" fill="white"/>
<path d="M51.2071 41.9556C51.2071 41.9675 51.2071 41.9779 51.2071 41.989C50.8718 43.0101 50.3934 43.8852 49.8097 44.6974C49.2768 45.4347 48.6238 46.4269 47.4578 46.4269C46.4503 46.4269 45.7811 45.7755 44.7485 45.7578C43.6562 45.74 43.0556 46.3024 42.0569 46.4439C41.9427 46.4439 41.8284 46.4439 41.7164 46.4439C40.983 46.3372 40.3912 45.7533 39.9601 45.2272C38.6887 43.6726 37.7062 41.6644 37.5234 39.0946C37.5234 38.8427 37.5234 38.5915 37.5234 38.3395C37.6008 36.5003 38.4897 35.005 39.6711 34.2803C40.2947 33.8949 41.1518 33.5667 42.1063 33.7134C42.5153 33.7771 42.9332 33.9179 43.2995 34.0572C43.6467 34.1913 44.0808 34.4292 44.492 34.4166C44.7706 34.4085 45.0478 34.2625 45.3286 34.1595C46.1511 33.8609 46.9574 33.5185 48.0202 33.6793C49.2975 33.8735 50.204 34.444 50.7642 35.3244C49.6837 36.0157 48.8295 37.0576 48.9754 38.8367C49.1051 40.4529 50.0397 41.3984 51.2071 41.9556Z" fill="white"/>
</g>
<defs>
<filter id="filter0_d_3289_1909" x="0.574219" y="0.506348" width="239.363" height="83" filterUnits="userSpaceOnUse" color-interpolation-filters="sRGB">
<feFlood flood-opacity="0" result="BackgroundImageFix"/>
<feColorMatrix in="SourceAlpha" type="matrix" values="0 0 0 0 0 0 0 0 0 0 0 0 0 0 0 0 0 0 127 0" result="hardAlpha"/>
<feOffset dy="4"/>
<feGaussianBlur stdDeviation="2"/>
<feComposite in2="hardAlpha" operator="out"/>
<feColorMatrix type="matrix" values="0 0 0 0 0 0 0 0 0 0 0 0 0 0 0 0 0 0 0.25 0"/>
<feBlend mode="normal" in2="BackgroundImageFix" result="effect1_dropShadow_3289_1909"/>
<feBlend mode="normal" in="SourceGraphic" in2="effect1_dropShadow_3289_1909" result="shape"/>
</filter>
</defs>
</svg>
