<svg width="15" height="15" viewBox="0 0 15 15" fill="none" xmlns="http://www.w3.org/2000/svg">
<path d="M12.5026 0H11.0776C9.44257 0 8.58008 0.862413 8.58008 2.49725V3.9221C8.58008 5.55694 9.44257 6.41935 11.0776 6.41935H12.5026C14.1376 6.41935 15 5.55694 15 3.9221V2.49725C15 0.862413 14.1376 0 12.5026 0Z" fill="white"/>
<path d="M3.92998 8.57129H2.50499C0.862496 8.57129 0 9.4337 0 11.0685V12.4934C0 14.1357 0.862496 14.9981 2.49749 14.9981H3.92248C5.55748 14.9981 6.41997 14.1357 6.41997 12.5009V11.076C6.42747 9.4337 5.56497 8.57129 3.92998 8.57129Z" fill="white"/>
<path d="M3.21749 6.43435C4.99445 6.43435 6.43497 4.99397 6.43497 3.21718C6.43497 1.44038 4.99445 0 3.21749 0C1.44052 0 0 1.44038 0 3.21718C0 4.99397 1.44052 6.43435 3.21749 6.43435Z" fill="white"/>
<path d="M11.7819 14.9998C13.5589 14.9998 14.9994 13.5594 14.9994 11.7826C14.9994 10.0058 13.5589 8.56543 11.7819 8.56543C10.005 8.56543 8.56445 10.0058 8.56445 11.7826C8.56445 13.5594 10.005 14.9998 11.7819 14.9998Z" fill="white"/>
</svg>
