<svg width="15" height="15" viewBox="0 0 15 15" fill="none" xmlns="http://www.w3.org/2000/svg">
<path d="M12.5006 0H11.0756C9.44062 0 8.57812 0.862413 8.57812 2.49725V3.9221C8.57812 5.55694 9.44062 6.41935 11.0756 6.41935H12.5006C14.1356 6.41935 14.9981 5.55694 14.9981 3.9221V2.49725C14.9981 0.862413 14.1356 0 12.5006 0Z" fill="white"/>
<path d="M3.92998 8.57153H2.50499C0.862496 8.57153 0 9.43395 0 11.0688V12.4936C0 14.136 0.862496 14.9984 2.49749 14.9984H3.92248C5.55748 14.9984 6.41997 14.136 6.41997 12.5011V11.0763C6.42747 9.43395 5.56497 8.57153 3.92998 8.57153Z" fill="white"/>
<path d="M3.21749 6.43435C4.99445 6.43435 6.43497 4.99397 6.43497 3.21718C6.43497 1.44038 4.99445 0 3.21749 0C1.44052 0 0 1.44038 0 3.21718C0 4.99397 1.44052 6.43435 3.21749 6.43435Z" fill="white"/>
<path d="M11.78 15C13.557 15 14.9975 13.5596 14.9975 11.7828C14.9975 10.0061 13.557 8.56567 11.78 8.56567C10.003 8.56567 8.5625 10.0061 8.5625 11.7828C8.5625 13.5596 10.003 15 11.78 15Z" fill="white"/>
</svg>
