<svg width="56" height="56" viewBox="0 0 56 56" fill="none" xmlns="http://www.w3.org/2000/svg">
<mask id="mask0_3264_3116" style="mask-type:luminance" maskUnits="userSpaceOnUse" x="0" y="0" width="57" height="56">
<path d="M56.002 0H0.00195312V56H56.002V0Z" fill="white"/>
</mask>
<g mask="url(#mask0_3264_3116)">
<path d="M44.551 29.8481H44.6406C45.8058 29.8481 46.7023 30.9461 46.4109 32.0889C44.5286 40.0216 37.4474 46.0049 28.9992 46.2513C25.4809 46.3411 22.1644 45.4446 19.3184 43.8313L17.3913 47.6855L16.1812 50.1282C15.4417 51.5847 13.5818 52.1001 12.2372 51.1814C4.84228 46.0945 0.00195312 37.6016 0.00195312 27.9881C0.00195312 26.1058 0.181225 24.2682 0.539768 22.4755C0.584586 22.2738 0.629404 22.0722 0.674223 21.8928C0.71904 21.6912 0.763858 21.4895 0.808676 21.3103C0.853494 21.1085 0.898311 20.9293 0.943129 20.75C1.01036 20.5484 1.05517 20.3242 1.1224 20.1225C1.16722 19.9881 1.21204 19.8313 1.25686 19.6967C1.27926 19.6519 1.27926 19.6295 1.27926 19.5847C1.32408 19.4278 1.3689 19.2934 1.43613 19.1366C1.43613 19.1142 1.45854 19.0692 1.45854 19.0468C1.50336 18.9124 1.54817 18.8228 1.57059 18.7108C1.6378 18.4867 1.72745 18.2625 1.81708 18.0609C1.86189 17.9488 1.90672 17.8592 1.95153 17.7472C2.04116 17.5454 2.10839 17.3214 2.19804 17.1197C2.19804 17.0973 2.22044 17.0973 2.22044 17.0749C2.31008 16.8733 2.39971 16.6716 2.48936 16.4698C2.53417 16.3578 2.57898 16.2682 2.6238 16.1562C2.66861 16.0441 2.71344 15.9545 2.75826 15.8425C2.91512 15.5287 3.04958 15.2374 3.22885 14.9236C4.93193 11.6743 7.26246 8.806 10.0636 6.47547C11.4978 5.26538 13.6938 5.75839 14.5454 7.43905C14.7246 7.82001 14.8366 8.22336 14.8366 8.62672C14.8366 9.41105 14.5006 10.1729 13.8507 10.6883C8.8759 14.7892 5.69384 20.9965 5.69384 27.9657C5.69384 35.0021 8.94313 41.2766 14.0524 45.3774L16.0692 41.3662C13.4473 38.9685 11.5426 35.8088 10.6686 32.2457C10.3773 31.0805 11.2737 29.9601 12.4613 29.9601H12.5286C13.4025 29.9601 14.1868 30.5428 14.3885 31.3942C16.0243 37.8481 21.9404 42.5763 28.932 42.3971C35.565 42.2177 41.1449 37.5344 42.691 31.3046C42.8926 30.453 43.6547 29.8481 44.551 29.8481Z" fill="url(#paint0_linear_3264_3116)"/>
<path d="M10.2941 24.986C11.661 16.1569 19.3024 9.41187 28.5125 9.41187C37.7226 9.41187 45.3417 16.1569 46.7087 24.986C46.8655 26.0617 46.014 27.0253 44.9383 27.0253H44.8263C43.8627 27.0253 43.056 26.3306 42.899 25.3895C41.7338 18.4875 35.7282 13.2438 28.5125 13.2438C21.2745 13.2214 15.2464 18.5099 14.1036 25.4343C13.9467 26.353 13.1624 27.0253 12.2437 27.0253H12.0644C10.9888 27.0029 10.1372 26.0617 10.2941 24.986Z" fill="url(#paint1_linear_3264_3116)"/>
<path d="M23.7113 27.3163C23.6217 27.6749 23.6217 28.0558 23.6889 28.4144C24.1819 30.9242 26.0868 32.2015 27.9915 32.2015C29.0447 32.2015 30.0754 31.8205 30.9047 31.0362C31.5994 30.3863 32.6077 30.2295 33.4593 30.6329L35.6778 31.7309C35.7674 31.7533 35.7898 31.8653 35.745 31.9327C34.6469 34.0838 32.6077 35.8541 29.6497 36.6608C28.4172 36.997 27.095 36.9746 25.885 36.5712C21.448 35.1594 19.252 31.5517 19.252 27.9662C19.252 25.6582 20.1484 23.3499 21.9634 21.6469C22.0531 21.5572 23.7337 19.9214 25.885 19.4957C28.8206 18.7562 32.0699 19.5853 34.3108 21.9605C34.8261 22.4984 35.252 23.0811 35.588 23.7085C35.6778 23.8654 35.6104 24.0446 35.4536 24.1342L32.9886 25.4116C32.7422 25.546 32.4957 25.5908 32.2267 25.5908C31.7786 25.5908 31.3528 25.4116 31.0167 25.0755C28.8654 22.745 24.6974 23.4621 23.7113 27.3163Z" fill="url(#paint2_linear_3264_3116)"/>
<path d="M55.9997 28.0112C55.9997 28.7059 55.9773 29.4006 55.9325 30.0729C55.9325 30.1401 55.9101 30.2073 55.9101 30.2745C55.9101 30.3641 55.9101 30.4314 55.8877 30.521C55.8653 30.6554 55.8653 30.79 55.8429 30.9244C55.8429 31.014 55.8203 31.1036 55.8203 31.1933C55.8203 31.2157 55.8203 31.2157 55.8203 31.2381C55.7755 31.5967 55.7307 31.9328 55.6859 32.2914C55.6859 32.2914 55.6859 32.2914 55.6859 32.3138C54.9016 37.3333 52.7951 41.9272 49.7252 45.6919C49.658 45.7591 49.6132 45.8487 49.5458 45.916C48.8737 46.9467 48.9185 48.3137 49.7476 49.2774L51.966 51.944C52.8175 52.9524 52.6607 54.4538 51.6523 55.2829L51.4283 55.4623C50.4198 56.3137 48.9185 56.1568 48.0892 55.1485L45.9829 52.6387C45.1536 51.6526 43.7868 51.3613 42.644 51.8768C42.5542 51.9216 42.4422 51.9664 42.3526 52.0336C40.1789 53.3334 37.8036 54.3642 35.2938 55.0364C35.1817 55.0813 35.0697 55.1261 34.9353 55.1709C34.9129 55.1709 34.9129 55.1709 34.8905 55.1709C34.8231 55.1933 34.7335 55.2157 34.6663 55.2381C34.5543 55.2605 34.4422 55.3053 34.3302 55.3277C34.2406 55.3501 34.1734 55.3725 34.0836 55.3725C33.8596 55.4173 33.4787 55.4847 33.2545 55.5519C33.1873 55.5743 33.1201 55.5742 33.0529 55.5966C32.672 55.6639 32.291 55.7311 31.9101 55.7759C31.7755 55.7983 31.6411 55.8208 31.5066 55.8208C31.3722 55.8432 31.2154 55.8656 31.0808 55.8656C30.9464 55.888 30.8344 55.888 30.6999 55.9104C29.9604 55.9776 29.2209 56.0224 28.459 56.0448C28.3246 56.0448 28.1677 56.0448 28.0333 56.0448H28.0109C27.2938 56.0448 26.5767 56.0224 25.8596 55.9552C24.0892 55.8208 22.3415 55.5071 20.6607 55.0588H20.6383C20.5487 55.0364 20.4814 55.014 20.3918 54.9916C19.2713 54.633 18.4646 53.5798 18.4198 52.3473C18.4198 52.3249 18.4198 52.2801 18.4198 52.2577C18.4198 51.2941 18.8904 50.4426 19.6299 49.9272C20.1004 49.5911 20.6607 49.4117 21.2882 49.4117C21.4226 49.4117 21.557 49.4117 21.6916 49.4342C21.938 49.5014 22.1621 49.5687 22.4087 49.6359C24.2014 50.1064 26.0613 50.353 28.0109 50.353C40.3581 50.353 50.3526 40.3586 50.3526 28.0112C50.3526 18.1736 43.9884 9.81512 35.1593 6.83474C35.1369 6.83474 35.1145 6.81233 35.0921 6.81233C35.0025 6.78991 34.9353 6.76751 34.8455 6.7451C32.6944 6.05042 30.4085 5.69188 28.0333 5.69188C25.3218 5.69188 22.6999 6.18488 20.3022 7.05883C19.0249 7.52941 17.6131 6.94678 17.008 5.7367L16.9408 5.60224C16.1789 4.10084 16.896 2.2633 18.4646 1.70308C21.4226 0.582633 24.6271 0 27.9885 0C43.4731 0 55.9997 12.5266 55.9997 28.0112Z" fill="url(#paint3_linear_3264_3116)"/>
</g>
<defs>
<linearGradient id="paint0_linear_3264_3116" x1="0.00195312" y1="28.7257" x2="46.4759" y2="28.7257" gradientUnits="userSpaceOnUse">
<stop stop-color="#312783"/>
<stop offset="1" stop-color="#6338A1"/>
</linearGradient>
<linearGradient id="paint1_linear_3264_3116" x1="10.2826" y1="18.2074" x2="46.7319" y2="18.2074" gradientUnits="userSpaceOnUse">
<stop stop-color="#312783"/>
<stop offset="1" stop-color="#6338A1"/>
</linearGradient>
<linearGradient id="paint2_linear_3264_3116" x1="19.2609" y1="28.069" x2="35.7852" y2="28.069" gradientUnits="userSpaceOnUse">
<stop stop-color="#312783"/>
<stop offset="1" stop-color="#6338A1"/>
</linearGradient>
<linearGradient id="paint3_linear_3264_3116" x1="55.9997" y1="28.0022" x2="16.6016" y2="28.0022" gradientUnits="userSpaceOnUse">
<stop stop-color="#E59716"/>
<stop offset="1" stop-color="#F6CD57"/>
</linearGradient>
</defs>
</svg>
