<svg width="159" height="38" viewBox="0 0 159 38" fill="none" xmlns="http://www.w3.org/2000/svg">
<g clip-path="url(#clip0)">
<path d="M55.3734 11.083C56.7628 11.083 57.9385 11.2956 58.8648 11.7207C59.7911 12.1458 60.6817 12.7481 61.4655 13.5629C61.6436 13.7755 61.7505 13.9881 61.7505 14.2006C61.7505 14.5903 61.5724 14.98 61.1805 15.3697C60.7886 15.7594 60.4323 15.9366 60.0048 15.9366C59.7554 15.9366 59.5417 15.8657 59.3992 15.6886C58.8648 15.1572 58.3304 14.732 57.7247 14.4486C57.1191 14.1652 56.4422 14.0235 55.6584 14.0235C54.3759 14.0235 53.3071 14.4486 52.5233 15.3343C51.7039 16.22 51.312 17.4599 51.312 19.0896C51.312 20.7193 51.7039 21.9592 52.5233 22.8449C53.3427 23.7306 54.3759 24.1557 55.6584 24.1557C56.4422 24.1557 57.1547 24.014 57.7247 23.7306C58.2948 23.4472 58.8648 23.0221 59.3992 22.4906C59.5773 22.3135 59.7554 22.2426 60.0048 22.2426C60.3967 22.2426 60.7886 22.4198 61.1805 22.8095C61.5724 23.1992 61.7505 23.5889 61.7505 23.9786C61.7505 24.2266 61.6436 24.4391 61.4655 24.6163C60.6817 25.4311 59.7911 26.0688 58.8648 26.4939C57.9385 26.9191 56.7628 27.1316 55.3734 27.1316C53.0577 27.1316 51.1695 26.4231 49.7088 24.9706C48.2482 23.518 47.5 21.605 47.5 19.125C47.5 16.6451 48.2125 14.6612 49.6732 13.2441C51.1339 11.827 53.0221 11.083 55.3734 11.083Z" fill="#5A5A5A"/>
<path d="M67.4508 12.9961C67.4508 13.3149 67.2727 13.5984 66.9521 13.7755C66.6314 13.9526 66.2039 14.0589 65.7052 14.0589C65.2064 14.0589 64.7789 13.9526 64.4582 13.7755C64.1376 13.5984 63.9595 13.3149 63.9595 12.9961V12.1458C63.9595 11.827 64.1376 11.5436 64.4582 11.3664C64.7789 11.1893 65.2064 11.083 65.7052 11.083C66.2039 11.083 66.5958 11.1893 66.9521 11.3664C67.3083 11.5436 67.4508 11.7916 67.4508 12.1458V12.9961ZM67.4508 26.1397C67.4508 26.4585 67.2727 26.7419 66.9521 26.9191C66.6314 27.0962 66.2039 27.2025 65.7052 27.2025C65.2064 27.2025 64.7789 27.0962 64.4582 26.9191C64.1376 26.7419 63.9595 26.4939 63.9595 26.1397V16.6097C63.9595 16.2908 64.1376 16.0074 64.4582 15.8303C64.7789 15.6531 65.2064 15.5469 65.7052 15.5469C66.2039 15.5469 66.5958 15.6531 66.9521 15.8303C67.3083 16.0074 67.4508 16.2554 67.4508 16.6097V26.1397Z" fill="#5A5A5A"/>
<path d="M76.4641 15.7591C76.7848 15.7591 77.0698 15.8654 77.2479 16.1134C77.426 16.3614 77.5329 16.6802 77.5329 17.0345C77.5329 17.4242 77.426 17.743 77.2479 17.991C77.0698 18.239 76.8204 18.3807 76.4641 18.3807H74.8253V23.128C74.8253 23.5886 74.9678 23.9428 75.2528 24.1908C75.5379 24.4388 75.9297 24.5451 76.4285 24.5451C76.7848 24.5451 77.0342 24.6514 77.2123 24.8994C77.3904 25.1474 77.4973 25.4662 77.4973 25.8559C77.4973 26.2456 77.3904 26.5999 77.2123 26.8125C77.0342 27.0605 76.7848 27.1667 76.4285 27.1667C74.7184 27.1667 73.4715 26.777 72.6165 25.9976C71.7615 25.2182 71.334 24.12 71.334 22.7737V18.4162H70.1939C69.8733 18.4162 69.5883 18.2745 69.4101 18.0265C69.232 17.7785 69.1251 17.4596 69.1251 17.0699C69.1251 16.6802 69.232 16.3968 69.4101 16.1488C69.5883 15.9008 69.8376 15.7945 70.1939 15.7945H71.334V13.2083C71.334 12.8895 71.5121 12.6061 71.8327 12.4289C72.1534 12.2518 72.5809 12.1455 73.0796 12.1455C73.5784 12.1455 73.9703 12.2518 74.3266 12.4289C74.6472 12.6061 74.8253 12.8541 74.8253 13.2083V15.7591H76.4641Z" fill="#5A5A5A"/>
<path d="M80.2049 15.5471C81.1312 15.5471 81.7012 15.7951 81.915 16.2557L84.7295 22.8098L87.5439 16.2557C87.7577 15.7597 88.3277 15.5117 89.2184 15.5117C89.7171 15.5117 90.1447 15.618 90.4653 15.7951C90.7859 15.9723 90.9641 16.2203 90.9641 16.5745C90.9641 16.7517 90.9284 16.858 90.8928 16.9288L84.302 30.9226C84.0526 31.4186 83.5182 31.6312 82.6275 31.6312C82.1288 31.6312 81.7012 31.5249 81.3806 31.3478C81.06 31.1706 80.8818 30.8872 80.8818 30.5684C80.8818 30.4267 80.9175 30.285 80.9531 30.1787L82.8769 26.1045L78.5661 16.9288C78.4949 16.8225 78.4949 16.7163 78.4949 16.5745C78.4949 16.2557 78.673 15.9723 78.9936 15.7951C79.3143 15.618 79.7418 15.5471 80.2049 15.5471Z" fill="#5A5A5A"/>
<path d="M100.797 11.083C103.256 11.083 105.251 11.827 106.747 13.2795C108.243 14.732 108.991 16.6805 108.991 19.125C108.991 20.6838 108.671 22.0655 108.03 23.27C107.388 24.4746 106.462 25.3957 105.322 26.0688L106.391 27.9819C106.462 28.1236 106.462 28.2299 106.426 28.3716C106.426 28.6904 106.248 28.9384 105.892 29.1156C105.536 29.2927 105.073 29.3636 104.538 29.3636C104.182 29.3636 103.79 29.2218 103.327 28.903C102.864 28.5842 102.579 28.3007 102.401 28.0527L101.902 27.1316C101.652 27.1671 101.296 27.1671 100.797 27.1671C98.3392 27.1671 96.3798 26.4231 94.8835 24.9706C93.3872 23.518 92.639 21.5695 92.639 19.125C92.639 16.6805 93.3872 14.732 94.8835 13.2795C96.3798 11.827 98.3392 11.083 100.797 11.083ZM100.797 14.0589C99.5149 14.0589 98.4461 14.5195 97.6623 15.4052C96.8429 16.3263 96.451 17.5662 96.451 19.125C96.451 20.6838 96.8429 21.9238 97.6623 22.8449C98.4817 23.766 99.5149 24.1912 100.797 24.1912C102.08 24.1912 103.149 23.7306 103.968 22.8449C104.788 21.9592 105.215 20.6838 105.215 19.125C105.215 17.5662 104.788 16.3263 103.968 15.4052C103.149 14.484 102.116 14.0589 100.797 14.0589Z" fill="#5A5A5A"/>
<path d="M119.964 25.006C119.572 25.6791 119.002 26.2105 118.254 26.6002C117.506 26.9899 116.651 27.1671 115.653 27.1671C114.335 27.1671 113.337 26.8482 112.625 26.1751C111.912 25.502 111.556 24.5809 111.556 23.4118V16.6097C111.556 16.2909 111.734 16.0074 112.055 15.8303C112.375 15.6532 112.803 15.5469 113.302 15.5469C113.8 15.5469 114.192 15.6532 114.549 15.8303C114.905 16.0074 115.047 16.2554 115.047 16.6097V22.2427C115.047 22.9158 115.261 23.4826 115.689 23.9078C116.116 24.3329 116.686 24.5454 117.363 24.5454C118.04 24.5454 118.574 24.3329 119.002 23.9078C119.429 23.4826 119.643 22.9158 119.643 22.2427V16.6097C119.643 16.2909 119.821 16.0074 120.142 15.8303C120.463 15.6532 120.89 15.5469 121.389 15.5469C121.888 15.5469 122.315 15.6532 122.636 15.8303C122.956 16.0074 123.135 16.2554 123.135 16.6097V26.1397C123.135 26.4585 122.992 26.7419 122.671 26.9191C122.351 27.0962 121.995 27.2025 121.531 27.2025C121.068 27.2025 120.712 27.0962 120.391 26.9191C120.071 26.7419 119.928 26.494 119.928 26.1397V25.006H119.964Z" fill="#5A5A5A"/>
<path d="M129.227 22.1721C129.334 22.9161 129.619 23.4829 130.082 23.908C130.545 24.3331 131.115 24.5457 131.828 24.5457C132.077 24.5457 132.291 24.5103 132.469 24.4749C132.683 24.4394 132.861 24.3686 133.039 24.2623C133.217 24.156 133.359 24.0852 133.431 24.0143C133.502 23.9434 133.644 23.8372 133.823 23.6955C134.001 23.5183 134.108 23.4475 134.143 23.412C134.357 23.2349 134.571 23.164 134.785 23.164C135.141 23.164 135.461 23.3058 135.782 23.6246C136.103 23.9434 136.245 24.2623 136.245 24.5811C136.245 24.8646 136.174 25.0771 136.031 25.2188C135.461 25.8565 134.82 26.3525 134.108 26.6714C133.395 26.9902 132.469 27.1673 131.364 27.1673C129.619 27.1673 128.229 26.6359 127.196 25.5377C126.163 24.4749 125.664 23.0578 125.664 21.3572C125.664 19.6922 126.163 18.3105 127.196 17.1768C128.229 16.0786 129.583 15.5117 131.293 15.5117C133.003 15.5117 134.357 16.0431 135.319 17.1414C136.316 18.2396 136.815 19.5504 136.815 21.1447C136.815 21.4281 136.708 21.6761 136.495 21.8532C136.281 22.0304 136.031 22.1366 135.711 22.1366H129.227V22.1721ZM133.502 20.1881C133.573 20.1881 133.644 20.1527 133.68 20.0819C133.716 20.011 133.716 19.9401 133.716 19.8693C133.644 19.3733 133.431 18.9836 133.074 18.6648C132.718 18.3459 132.219 18.1688 131.578 18.1688C131.008 18.1688 130.545 18.3459 130.153 18.7002C129.761 19.0545 129.476 19.5504 129.334 20.1881H133.502Z" fill="#5A5A5A"/>
<path d="M142.194 23.8012C142.194 24.1909 142.372 24.5097 142.764 24.7223C143.156 24.9349 143.548 25.0412 144.011 25.0412C144.617 25.0412 145.08 24.9349 145.365 24.7577C145.65 24.5806 145.793 24.2972 145.793 23.9429C145.793 23.4469 145.187 23.0572 144.011 22.7384C142.087 22.207 140.734 21.6755 139.95 21.1087C139.166 20.5419 138.81 19.7625 138.81 18.8059C138.81 17.814 139.202 17.0346 140.021 16.4677C140.841 15.8655 142.123 15.582 143.904 15.582C145.65 15.582 146.968 15.9009 147.788 16.5031C148.607 17.1054 149.035 17.9202 149.035 18.9122C149.035 19.1248 148.892 19.3019 148.643 19.479C148.393 19.6562 148.001 19.727 147.431 19.727C146.897 19.727 146.469 19.6562 146.256 19.479C146.006 19.3019 145.899 19.1248 145.899 18.9122C145.899 18.5579 145.721 18.2745 145.401 18.0265C145.08 17.7785 144.617 17.6722 144.118 17.6722C143.548 17.6722 143.085 17.7785 142.764 17.9557C142.444 18.1328 142.301 18.4162 142.301 18.7705C142.301 19.2665 142.871 19.6916 144.047 19.975C145.935 20.471 147.289 21.0379 148.073 21.6047C148.856 22.207 149.248 22.9509 149.248 23.872C149.248 24.8286 148.821 25.608 148.001 26.2103C147.182 26.8125 145.899 27.1314 144.154 27.1314C142.479 27.1314 141.197 26.8125 140.342 26.2103C139.487 25.608 139.059 24.7932 139.059 23.7658C139.059 23.5178 139.202 23.3052 139.487 23.1989C139.772 23.0572 140.164 22.9864 140.627 22.9864C141.09 22.9864 141.446 23.0572 141.767 23.1989C142.052 23.3406 142.194 23.5532 142.194 23.8012Z" fill="#5A5A5A"/>
<path d="M157.3 15.7591C157.62 15.7591 157.905 15.8654 158.083 16.1134C158.262 16.3614 158.369 16.6802 158.369 17.0345C158.369 17.4242 158.262 17.743 158.083 17.991C157.905 18.239 157.656 18.3807 157.3 18.3807H155.661V23.128C155.661 23.5886 155.803 23.9428 156.088 24.1908C156.373 24.4388 156.765 24.5451 157.264 24.5451C157.62 24.5451 157.87 24.6514 158.048 24.8994C158.226 25.1474 158.333 25.4662 158.333 25.8559C158.333 26.2456 158.226 26.5999 158.048 26.8125C157.87 27.025 157.62 27.1667 157.264 27.1667C155.554 27.1667 154.307 26.777 153.452 25.9976C152.597 25.2182 152.17 24.12 152.17 22.7737V18.4162H151.029C150.709 18.4162 150.424 18.2745 150.246 18.0265C150.068 17.7785 149.961 17.4596 149.961 17.0699C149.961 16.6802 150.068 16.3968 150.246 16.1488C150.424 15.9008 150.673 15.7945 151.029 15.7945H152.17V13.2083C152.17 12.8895 152.348 12.6061 152.668 12.4289C152.989 12.2518 153.416 12.1455 153.915 12.1455C154.414 12.1455 154.806 12.2518 155.162 12.4289C155.483 12.6061 155.661 12.8541 155.661 13.2083V15.7591H157.3Z" fill="#5A5A5A"/>
</g>
<g clip-path="url(#clip1)">
<path d="M30.2297 20.2541H30.2905C31.0812 20.2541 31.6895 20.9992 31.4918 21.7747C30.2145 27.1576 25.4094 31.2177 19.6767 31.3849C17.2893 31.4458 15.0388 30.8375 13.1076 29.7427L11.7999 32.3581L10.9788 34.0156C10.477 35.004 9.21489 35.3537 8.30252 34.7303C3.28451 31.2785 0 25.5154 0 18.992C0 17.7147 0.121649 16.4678 0.364946 15.2513C0.395358 15.1144 0.42577 14.9776 0.456183 14.8559C0.486595 14.7191 0.517007 14.5822 0.547419 14.4606C0.577831 14.3237 0.608243 14.2021 0.638655 14.0804C0.684274 13.9436 0.714686 13.7915 0.760304 13.6546C0.790716 13.5634 0.821128 13.457 0.851541 13.3657C0.866747 13.3353 0.866747 13.3201 0.866747 13.2897C0.897159 13.1832 0.927571 13.092 0.973189 12.9856C0.973189 12.9704 0.988395 12.9399 0.988395 12.9247C1.01881 12.8335 1.04922 12.7727 1.06443 12.6967C1.11004 12.5446 1.17087 12.3925 1.23169 12.2557C1.2621 12.1796 1.29252 12.1188 1.32293 12.0428C1.38375 11.9059 1.42937 11.7539 1.4902 11.617C1.4902 11.6018 1.5054 11.6018 1.5054 11.5866C1.56623 11.4498 1.62705 11.3129 1.68788 11.176C1.71829 11.1 1.7487 11.0392 1.77911 10.9632C1.80952 10.8871 1.83994 10.8263 1.87035 10.7503C1.97679 10.5374 2.06803 10.3397 2.18968 10.1268C3.34534 7.92194 4.92677 5.97556 6.82753 4.39413C7.80072 3.573 9.29092 3.90754 9.86875 5.04799C9.9904 5.3065 10.0664 5.5802 10.0664 5.85391C10.0664 6.38613 9.83834 6.90313 9.39736 7.25287C6.02161 10.0356 3.86235 14.2477 3.86235 18.9768C3.86235 23.7515 6.06723 28.0092 9.53421 30.7919L10.9028 28.07C9.12365 26.443 7.83113 24.2989 7.2381 21.8811C7.04042 21.0904 7.64866 20.3301 8.45458 20.3301H8.5002C9.09324 20.3301 9.62545 20.7255 9.76231 21.3033C10.8723 25.6827 14.8868 28.8911 19.6311 28.7695C24.1321 28.6478 27.9184 25.4698 28.9676 21.2425C29.1044 20.6646 29.6215 20.2541 30.2297 20.2541Z" fill="url(#paint0_linear)"/>
<path d="M6.9796 16.9549C7.90717 10.9637 13.0924 6.38672 19.3421 6.38672C25.5918 6.38672 30.7619 10.9637 31.6895 16.9549C31.7959 17.6848 31.2181 18.3387 30.4882 18.3387H30.4122C29.7583 18.3387 29.2109 17.8673 29.1044 17.2287C28.3137 12.5452 24.2385 8.98696 19.3421 8.98696C14.4306 8.97175 10.3401 12.5604 9.56463 17.2591C9.45819 17.8825 8.92598 18.3387 8.30253 18.3387H8.18088C7.45099 18.3235 6.87316 17.6848 6.9796 16.9549Z" fill="url(#paint1_linear)"/>
<path d="M16.088 18.5363C16.0272 18.7796 16.0272 19.0381 16.0728 19.2814C16.4073 20.9845 17.6999 21.8512 18.9924 21.8512C19.7071 21.8512 20.4065 21.5927 20.9692 21.0605C21.4406 20.6195 22.1248 20.5131 22.7027 20.7868L24.2081 21.5319C24.2689 21.5471 24.2841 21.6231 24.2537 21.6688C23.5086 23.1285 22.1248 24.3298 20.1176 24.8772C19.2813 25.1053 18.3841 25.0901 17.563 24.8164C14.5522 23.8584 13.062 21.4103 13.062 18.9773C13.062 17.4111 13.6703 15.8448 14.9019 14.6892C14.9628 14.6283 16.1032 13.5183 17.563 13.2294C19.555 12.7276 21.7599 13.2902 23.2805 14.902C23.6302 15.267 23.9192 15.6624 24.1472 16.0881C24.2081 16.1946 24.1624 16.3162 24.056 16.377L22.3833 17.2438C22.2161 17.335 22.0488 17.3654 21.8663 17.3654C21.5622 17.3654 21.2733 17.2438 21.0452 17.0157C19.5854 15.4343 16.7571 15.9209 16.088 18.5363Z" fill="url(#paint2_linear)"/>
<path d="M38 19.0076C38 19.479 37.9848 19.9504 37.9544 20.4066C37.9544 20.4522 37.9392 20.4978 37.9392 20.5434C37.9392 20.6042 37.9392 20.6499 37.924 20.7107C37.9088 20.8019 37.9088 20.8932 37.8936 20.9844C37.8936 21.0452 37.8783 21.106 37.8783 21.1669C37.8783 21.1821 37.8783 21.1821 37.8783 21.1973C37.8479 21.4406 37.8175 21.6687 37.7871 21.912C37.7871 21.912 37.7871 21.912 37.7871 21.9272C37.2549 25.3333 35.8255 28.4506 33.7423 31.0052C33.6967 31.0508 33.6663 31.1116 33.6206 31.1573C33.1645 31.8567 33.1949 32.7843 33.7575 33.4382L35.2629 35.2477C35.8407 35.932 35.7343 36.9508 35.05 37.5134L34.898 37.6351C34.2137 38.2129 33.1949 38.1064 32.6322 37.4222L31.2029 35.7191C30.6402 35.05 29.7127 34.8523 28.9372 35.2021C28.8763 35.2325 28.8003 35.2629 28.7395 35.3085C27.2645 36.1905 25.6527 36.89 23.9496 37.3461C23.8735 37.3766 23.7975 37.407 23.7063 37.4374C23.6911 37.4374 23.6911 37.4374 23.6759 37.4374C23.6302 37.4526 23.5694 37.4678 23.5238 37.483C23.4478 37.4982 23.3717 37.5286 23.2957 37.5438C23.2349 37.559 23.1893 37.5742 23.1284 37.5742C22.9764 37.6046 22.7179 37.6503 22.5658 37.6959C22.5202 37.7111 22.4746 37.7111 22.429 37.7263C22.1705 37.7719 21.912 37.8175 21.6535 37.8479C21.5622 37.8631 21.471 37.8784 21.3797 37.8784C21.2885 37.8936 21.1821 37.9088 21.0908 37.9088C20.9996 37.924 20.9236 37.924 20.8323 37.9392C20.3305 37.9848 19.8287 38.0152 19.3117 38.0304C19.2205 38.0304 19.114 38.0304 19.0228 38.0304H19.0076C18.521 38.0304 18.0344 38.0152 17.5478 37.9696C16.3465 37.8784 15.1605 37.6655 14.02 37.3613H14.0048C13.944 37.3461 13.8983 37.3309 13.8375 37.3157C13.0772 37.0724 12.5298 36.3577 12.4994 35.5214C12.4994 35.5062 12.4994 35.4758 12.4994 35.4606C12.4994 34.8067 12.8187 34.2289 13.3205 33.8792C13.6398 33.6511 14.02 33.5294 14.4458 33.5294C14.537 33.5294 14.6282 33.5294 14.7195 33.5446C14.8867 33.5902 15.0388 33.6359 15.2061 33.6815C16.4226 34.0008 17.6847 34.1681 19.0076 34.1681C27.3861 34.1681 34.1681 27.3862 34.1681 19.0076C34.1681 12.3321 29.8495 6.66026 23.8583 4.63786C23.8431 4.63786 23.8279 4.62265 23.8127 4.62265C23.7519 4.60744 23.7063 4.59224 23.6454 4.57703C22.1857 4.10564 20.6346 3.86235 19.0228 3.86235C17.1829 3.86235 15.4037 4.19688 13.7767 4.78992C12.91 5.10924 11.952 4.71389 11.5414 3.89276L11.4958 3.80152C10.9788 2.78271 11.4654 1.53581 12.5298 1.15566C14.537 0.395358 16.7115 0 18.9924 0C29.4998 0 38 8.5002 38 19.0076Z" fill="url(#paint3_linear)"/>
</g>
<defs>
<linearGradient id="paint0_linear" x1="0" y1="19.4925" x2="31.5359" y2="19.4925" gradientUnits="userSpaceOnUse">
<stop stop-color="#312783"/>
<stop offset="1" stop-color="#6338A1"/>
</linearGradient>
<linearGradient id="paint1_linear" x1="6.97181" y1="12.3551" x2="31.7053" y2="12.3551" gradientUnits="userSpaceOnUse">
<stop stop-color="#312783"/>
<stop offset="1" stop-color="#6338A1"/>
</linearGradient>
<linearGradient id="paint2_linear" x1="13.0681" y1="19.047" x2="24.281" y2="19.047" gradientUnits="userSpaceOnUse">
<stop stop-color="#312783"/>
<stop offset="1" stop-color="#6338A1"/>
</linearGradient>
<linearGradient id="paint3_linear" x1="38" y1="19.0015" x2="11.2656" y2="19.0015" gradientUnits="userSpaceOnUse">
<stop stop-color="#E59716"/>
<stop offset="1" stop-color="#F6CD57"/>
</linearGradient>
<clipPath id="clip0">
<rect width="110.833" height="20.5833" fill="white" transform="translate(47.5 11.083)"/>
</clipPath>
<clipPath id="clip1">
<rect width="38" height="38" fill="white"/>
</clipPath>
</defs>
</svg>
