<svg width="21" height="21" viewBox="0 0 21 21" fill="none" xmlns="http://www.w3.org/2000/svg">
<g clip-path="url(#clip0_3811_1781)">
<path d="M17.85 0H3.15C1.4103 0 0 1.4103 0 3.15V17.85C0 19.5897 1.4103 21 3.15 21H17.85C19.5897 21 21 19.5897 21 17.85V3.15C21 1.4103 19.5897 0 17.85 0Z" fill="#1877F2"/>
<path d="M14.5871 13.5352L15.0547 10.5H12.1426V8.53125C12.1426 7.70273 12.5486 6.89062 13.8529 6.89062H15.1777V4.30664C15.1777 4.30664 13.976 4.10156 12.8275 4.10156C10.4281 4.10156 8.86133 5.55352 8.86133 8.18672V10.5H6.19531V13.5352H8.86133V21H12.1426V13.5352H14.5871Z" fill="white"/>
</g>
<defs>
<clipPath id="clip0_3811_1781">
<rect width="21" height="21" fill="white"/>
</clipPath>
</defs>
</svg>
