<svg width="48" height="48" viewBox="0 0 48 48" fill="none" xmlns="http://www.w3.org/2000/svg">
<g filter="url(#filter0_d_3811_1789)">
<g clip-path="url(#clip0_3811_1789)">
<path d="M32.4 10H15.6C13.6118 10 12 11.6118 12 13.6V30.4C12 32.3882 13.6118 34 15.6 34H32.4C34.3882 34 36 32.3882 36 30.4V13.6C36 11.6118 34.3882 10 32.4 10Z" fill="white"/>
<path d="M19.4062 28.3281V21.6719L15.5625 18.7188V26.9219C15.5625 27.8594 16.0312 28.3281 16.9688 28.3281" fill="#4285F4"/>
<path d="M19.2188 21.625L24 25.2344L28.7812 21.625V17.0312L24 20.6406L19.2188 17.0312" fill="#EA4335"/>
<path d="M28.5938 28.3281V21.6719L32.4375 18.7188V26.9219C32.4375 27.8594 31.9688 28.3281 31.0312 28.3281" fill="#34A853"/>
<path d="M15.5625 18.8122L19.4062 21.7653V17.1716L18 16.0935C16.7344 15.1091 15.5625 16.0935 15.5625 17.3122" fill="#C5221F"/>
<path d="M32.4375 18.8122L28.5938 21.7653V17.1716L30 16.0935C31.2656 15.1091 32.4375 16.0935 32.4375 17.3122" fill="#FBBC04"/>
</g>
</g>
<defs>
<filter id="filter0_d_3811_1789" x="0" y="0" width="48" height="48" filterUnits="userSpaceOnUse" color-interpolation-filters="sRGB">
<feFlood flood-opacity="0" result="BackgroundImageFix"/>
<feColorMatrix in="SourceAlpha" type="matrix" values="0 0 0 0 0 0 0 0 0 0 0 0 0 0 0 0 0 0 127 0" result="hardAlpha"/>
<feOffset dy="2"/>
<feGaussianBlur stdDeviation="6"/>
<feComposite in2="hardAlpha" operator="out"/>
<feColorMatrix type="matrix" values="0 0 0 0 0 0 0 0 0 0 0 0 0 0 0 0 0 0 0.08 0"/>
<feBlend mode="normal" in2="BackgroundImageFix" result="effect1_dropShadow_3811_1789"/>
<feBlend mode="normal" in="SourceGraphic" in2="effect1_dropShadow_3811_1789" result="shape"/>
</filter>
<clipPath id="clip0_3811_1789">
<rect x="12" y="10" width="24" height="24" rx="4" fill="white"/>
</clipPath>
</defs>
</svg>
