<svg width="21" height="21" viewBox="0 0 21 21" fill="none" xmlns="http://www.w3.org/2000/svg">
<path d="M16.5 0H4.5C2.01472 0 0 2.01472 0 4.5V16.5C0 18.9853 2.01472 21 4.5 21H16.5C18.9853 21 21 18.9853 21 16.5V4.5C21 2.01472 18.9853 0 16.5 0Z" fill="url(#paint0_radial_3811_1804)"/>
<path d="M16.5 0H4.5C2.01472 0 0 2.01472 0 4.5V16.5C0 18.9853 2.01472 21 4.5 21H16.5C18.9853 21 21 18.9853 21 16.5V4.5C21 2.01472 18.9853 0 16.5 0Z" fill="url(#paint1_radial_3811_1804)"/>
<path d="M16.5 0H4.5C2.01472 0 0 2.01472 0 4.5V16.5C0 18.9853 2.01472 21 4.5 21H16.5C18.9853 21 21 18.9853 21 16.5V4.5C21 2.01472 18.9853 0 16.5 0Z" fill="url(#paint2_radial_3811_1804)"/>
<path d="M15.75 6.375C15.75 6.9963 15.2463 7.5 14.625 7.5C14.0037 7.5 13.5 6.9963 13.5 6.375C13.5 5.75368 14.0037 5.25 14.625 5.25C15.2463 5.25 15.75 5.75368 15.75 6.375Z" fill="white"/>
<path fill-rule="evenodd" clip-rule="evenodd" d="M10.5 14.25C12.5711 14.25 14.25 12.5711 14.25 10.5C14.25 8.42895 12.5711 6.75 10.5 6.75C8.42895 6.75 6.75 8.42895 6.75 10.5C6.75 12.5711 8.42895 14.25 10.5 14.25ZM10.5 12.75C11.7427 12.75 12.75 11.7427 12.75 10.5C12.75 9.25732 11.7427 8.25 10.5 8.25C9.25732 8.25 8.25 9.25732 8.25 10.5C8.25 11.7427 9.25732 12.75 10.5 12.75Z" fill="white"/>
<path fill-rule="evenodd" clip-rule="evenodd" d="M3 10.2C3 7.67978 3 6.41963 3.49047 5.45705C3.9219 4.61031 4.61031 3.9219 5.45705 3.49047C6.41963 3 7.67978 3 10.2 3H10.8C13.3202 3 14.5804 3 15.5429 3.49047C16.3897 3.9219 17.0781 4.61031 17.5095 5.45705C18 6.41963 18 7.67978 18 10.2V10.8C18 13.3202 18 14.5804 17.5095 15.5429C17.0781 16.3897 16.3897 17.0781 15.5429 17.5095C14.5804 18 13.3202 18 10.8 18H10.2C7.67978 18 6.41963 18 5.45705 17.5095C4.61031 17.0781 3.9219 16.3897 3.49047 15.5429C3 14.5804 3 13.3202 3 10.8V10.2ZM10.2 4.5H10.8C12.0849 4.5 12.9583 4.50117 13.6334 4.55632C14.2911 4.61005 14.6274 4.70744 14.862 4.82698C15.4264 5.1146 15.8854 5.57354 16.173 6.138C16.2925 6.3726 16.39 6.7089 16.4437 7.36657C16.4988 8.04172 16.5 8.9151 16.5 10.2V10.8C16.5 12.0849 16.4988 12.9583 16.4437 13.6334C16.39 14.2911 16.2925 14.6274 16.173 14.862C15.8854 15.4264 15.4264 15.8854 14.862 16.173C14.6274 16.2925 14.2911 16.39 13.6334 16.4437C12.9583 16.4988 12.0849 16.5 10.8 16.5H10.2C8.9151 16.5 8.04172 16.4988 7.36657 16.4437C6.7089 16.39 6.3726 16.2925 6.138 16.173C5.57354 15.8854 5.1146 15.4264 4.82698 14.862C4.70744 14.6274 4.61005 14.2911 4.55632 13.6334C4.50117 12.9583 4.5 12.0849 4.5 10.8V10.2C4.5 8.9151 4.50117 8.04172 4.55632 7.36657C4.61005 6.7089 4.70744 6.3726 4.82698 6.138C5.1146 5.57354 5.57354 5.1146 6.138 4.82698C6.3726 4.70744 6.7089 4.61005 7.36657 4.55632C8.04172 4.50117 8.9151 4.5 10.2 4.5Z" fill="white"/>
<defs>
<radialGradient id="paint0_radial_3811_1804" cx="0" cy="0" r="1" gradientUnits="userSpaceOnUse" gradientTransform="translate(7.5 15.75) rotate(-55.3758) scale(19.1397)">
<stop stop-color="#B13589"/>
<stop offset="0.79309" stop-color="#C62F94"/>
<stop offset="1" stop-color="#8A3AC8"/>
</radialGradient>
<radialGradient id="paint1_radial_3811_1804" cx="0" cy="0" r="1" gradientUnits="userSpaceOnUse" gradientTransform="translate(6.75 21.75) rotate(-65.1363) scale(16.9457)">
<stop stop-color="#E0E8B7"/>
<stop offset="0.444662" stop-color="#FB8A2E"/>
<stop offset="0.71474" stop-color="#E2425C"/>
<stop offset="1" stop-color="#E2425C" stop-opacity="0"/>
</radialGradient>
<radialGradient id="paint2_radial_3811_1804" cx="0" cy="0" r="1" gradientUnits="userSpaceOnUse" gradientTransform="translate(-1.125 0.75) rotate(-8.1301) scale(29.1682 6.23877)">
<stop offset="0.156701" stop-color="#406ADC"/>
<stop offset="0.467799" stop-color="#6A45BE"/>
<stop offset="1" stop-color="#6A45BE" stop-opacity="0"/>
</radialGradient>
</defs>
</svg>
