<svg width="13" height="18" viewBox="0 0 13 18" fill="none" xmlns="http://www.w3.org/2000/svg">
<path d="M6.5 0C2.91525 0 0 3.02738 0 6.75C0 11.4289 5.86733 17.5759 6.11649 17.8358C6.22267 17.9449 6.36133 18 6.5 18C6.63867 18 6.77733 17.9449 6.88351 17.8358C7.13267 17.5759 13 11.4289 13 6.75C13 3.02738 10.0847 0 6.5 0ZM6.5 10.125C4.70817 10.125 3.25 8.61074 3.25 6.75C3.25 4.88926 4.70817 3.375 6.5 3.375C8.29183 3.375 9.75 4.88926 9.75 6.75C9.75 8.61074 8.29183 10.125 6.5 10.125Z" fill="#1D1D1D" fill-opacity="0.5"/>
</svg>
