<svg width="240" height="84" viewBox="0 0 240 84" fill="none" xmlns="http://www.w3.org/2000/svg">
<g filter="url(#filter0_d_3289_1919)">
<rect x="4.57422" y="0.506348" width="231.365" height="75" rx="37.5" fill="#212121"/>
<path d="M85.928 23.296H82.436L81.836 25H80.408L83.396 16.648H84.98L87.968 25H86.528L85.928 23.296ZM85.544 22.18L84.188 18.304L82.82 22.18H85.544ZM91.3432 23.776L93.2152 18.388H94.6672L92.1472 25H90.5152L88.0072 18.388H89.4712L91.3432 23.776ZM94.7652 21.664C94.7652 21 94.9012 20.412 95.1732 19.9C95.4533 19.388 95.8293 18.992 96.3013 18.712C96.7813 18.424 97.3093 18.28 97.8853 18.28C98.4053 18.28 98.8573 18.384 99.2413 18.592C99.6333 18.792 99.9453 19.044 100.177 19.348V18.388H101.557V25H100.177V24.016C99.9453 24.328 99.6293 24.588 99.2293 24.796C98.8293 25.004 98.3733 25.108 97.8613 25.108C97.2933 25.108 96.7733 24.964 96.3013 24.676C95.8293 24.38 95.4533 23.972 95.1732 23.452C94.9012 22.924 94.7652 22.328 94.7652 21.664ZM100.177 21.688C100.177 21.232 100.081 20.836 99.8893 20.5C99.7053 20.164 99.4613 19.908 99.1573 19.732C98.8533 19.556 98.5253 19.468 98.1733 19.468C97.8213 19.468 97.4933 19.556 97.1893 19.732C96.8853 19.9 96.6373 20.152 96.4452 20.488C96.2613 20.816 96.1693 21.208 96.1693 21.664C96.1693 22.12 96.2613 22.52 96.4452 22.864C96.6373 23.208 96.8853 23.472 97.1893 23.656C97.5013 23.832 97.8293 23.92 98.1733 23.92C98.5253 23.92 98.8533 23.832 99.1573 23.656C99.4613 23.48 99.7053 23.224 99.8893 22.888C100.081 22.544 100.177 22.144 100.177 21.688ZM103.57 17.512C103.322 17.512 103.114 17.428 102.946 17.26C102.778 17.092 102.694 16.884 102.694 16.636C102.694 16.388 102.778 16.18 102.946 16.012C103.114 15.844 103.322 15.76 103.57 15.76C103.81 15.76 104.014 15.844 104.182 16.012C104.35 16.18 104.434 16.388 104.434 16.636C104.434 16.884 104.35 17.092 104.182 17.26C104.014 17.428 103.81 17.512 103.57 17.512ZM104.242 18.388V25H102.874V18.388H104.242ZM106.926 16.12V25H105.558V16.12H106.926ZM107.786 21.664C107.786 21 107.922 20.412 108.194 19.9C108.474 19.388 108.85 18.992 109.322 18.712C109.802 18.424 110.33 18.28 110.906 18.28C111.426 18.28 111.878 18.384 112.262 18.592C112.654 18.792 112.966 19.044 113.198 19.348V18.388H114.578V25H113.198V24.016C112.966 24.328 112.65 24.588 112.25 24.796C111.85 25.004 111.394 25.108 110.882 25.108C110.314 25.108 109.794 24.964 109.322 24.676C108.85 24.38 108.474 23.972 108.194 23.452C107.922 22.924 107.786 22.328 107.786 21.664ZM113.198 21.688C113.198 21.232 113.102 20.836 112.91 20.5C112.726 20.164 112.482 19.908 112.178 19.732C111.874 19.556 111.546 19.468 111.194 19.468C110.842 19.468 110.514 19.556 110.21 19.732C109.906 19.9 109.658 20.152 109.466 20.488C109.282 20.816 109.19 21.208 109.19 21.664C109.19 22.12 109.282 22.52 109.466 22.864C109.658 23.208 109.906 23.472 110.21 23.656C110.522 23.832 110.85 23.92 111.194 23.92C111.546 23.92 111.874 23.832 112.178 23.656C112.482 23.48 112.726 23.224 112.91 22.888C113.102 22.544 113.198 22.144 113.198 21.688ZM117.263 19.372C117.495 19.052 117.811 18.792 118.211 18.592C118.619 18.384 119.071 18.28 119.567 18.28C120.151 18.28 120.679 18.42 121.151 18.7C121.623 18.98 121.995 19.38 122.267 19.9C122.539 20.412 122.675 21 122.675 21.664C122.675 22.328 122.539 22.924 122.267 23.452C121.995 23.972 121.619 24.38 121.139 24.676C120.667 24.964 120.143 25.108 119.567 25.108C119.055 25.108 118.599 25.008 118.199 24.808C117.807 24.608 117.495 24.352 117.263 24.04V25H115.895V16.12H117.263V19.372ZM121.283 21.664C121.283 21.208 121.187 20.816 120.995 20.488C120.811 20.152 120.563 19.9 120.251 19.732C119.947 19.556 119.619 19.468 119.267 19.468C118.923 19.468 118.595 19.556 118.283 19.732C117.979 19.908 117.731 20.164 117.539 20.5C117.355 20.836 117.263 21.232 117.263 21.688C117.263 22.144 117.355 22.544 117.539 22.888C117.731 23.224 117.979 23.48 118.283 23.656C118.595 23.832 118.923 23.92 119.267 23.92C119.619 23.92 119.947 23.832 120.251 23.656C120.563 23.472 120.811 23.208 120.995 22.864C121.187 22.52 121.283 22.12 121.283 21.664ZM124.916 16.12V25H123.548V16.12H124.916ZM132.292 21.532C132.292 21.78 132.276 22.004 132.244 22.204H127.192C127.232 22.732 127.428 23.156 127.78 23.476C128.132 23.796 128.564 23.956 129.076 23.956C129.812 23.956 130.332 23.648 130.636 23.032H132.112C131.912 23.64 131.548 24.14 131.02 24.532C130.5 24.916 129.852 25.108 129.076 25.108C128.444 25.108 127.876 24.968 127.372 24.688C126.876 24.4 126.484 24 126.196 23.488C125.916 22.968 125.776 22.368 125.776 21.688C125.776 21.008 125.912 20.412 126.184 19.9C126.464 19.38 126.852 18.98 127.348 18.7C127.852 18.42 128.428 18.28 129.076 18.28C129.7 18.28 130.256 18.416 130.744 18.688C131.232 18.96 131.612 19.344 131.884 19.84C132.156 20.328 132.292 20.892 132.292 21.532ZM130.864 21.1C130.856 20.596 130.676 20.192 130.324 19.888C129.972 19.584 129.536 19.432 129.016 19.432C128.544 19.432 128.14 19.584 127.804 19.888C127.468 20.184 127.268 20.588 127.204 21.1H130.864ZM138.663 25.108C138.039 25.108 137.475 24.968 136.971 24.688C136.467 24.4 136.071 24 135.783 23.488C135.495 22.968 135.351 22.368 135.351 21.688C135.351 21.016 135.499 20.42 135.795 19.9C136.091 19.38 136.495 18.98 137.007 18.7C137.519 18.42 138.091 18.28 138.723 18.28C139.355 18.28 139.927 18.42 140.439 18.7C140.951 18.98 141.355 19.38 141.651 19.9C141.947 20.42 142.095 21.016 142.095 21.688C142.095 22.36 141.943 22.956 141.639 23.476C141.335 23.996 140.919 24.4 140.391 24.688C139.871 24.968 139.295 25.108 138.663 25.108ZM138.663 23.92C139.015 23.92 139.343 23.836 139.647 23.668C139.959 23.5 140.211 23.248 140.403 22.912C140.595 22.576 140.691 22.168 140.691 21.688C140.691 21.208 140.599 20.804 140.415 20.476C140.231 20.14 139.987 19.888 139.683 19.72C139.379 19.552 139.051 19.468 138.699 19.468C138.347 19.468 138.019 19.552 137.715 19.72C137.419 19.888 137.183 20.14 137.007 20.476C136.831 20.804 136.743 21.208 136.743 21.688C136.743 22.4 136.923 22.952 137.283 23.344C137.651 23.728 138.111 23.92 138.663 23.92ZM146.304 18.28C146.824 18.28 147.288 18.388 147.696 18.604C148.112 18.82 148.436 19.14 148.668 19.564C148.9 19.988 149.016 20.5 149.016 21.1V25H147.66V21.304C147.66 20.712 147.512 20.26 147.216 19.948C146.92 19.628 146.516 19.468 146.004 19.468C145.492 19.468 145.084 19.628 144.78 19.948C144.484 20.26 144.336 20.712 144.336 21.304V25H142.968V18.388H144.336V19.144C144.56 18.872 144.844 18.66 145.188 18.508C145.54 18.356 145.912 18.28 146.304 18.28ZM154.514 19.504V23.164C154.514 23.412 154.57 23.592 154.682 23.704C154.802 23.808 155.002 23.86 155.282 23.86H156.122V25H155.042C154.426 25 153.954 24.856 153.626 24.568C153.298 24.28 153.134 23.812 153.134 23.164V19.504H152.354V18.388H153.134V16.744H154.514V18.388H156.122V19.504H154.514ZM160.323 18.28C160.827 18.28 161.275 18.388 161.667 18.604C162.067 18.82 162.379 19.14 162.603 19.564C162.835 19.988 162.951 20.5 162.951 21.1V25H161.595V21.304C161.595 20.712 161.447 20.26 161.151 19.948C160.855 19.628 160.451 19.468 159.939 19.468C159.427 19.468 159.019 19.628 158.715 19.948C158.419 20.26 158.271 20.712 158.271 21.304V25H156.903V16.12H158.271V19.156C158.503 18.876 158.795 18.66 159.147 18.508C159.507 18.356 159.899 18.28 160.323 18.28ZM170.276 21.532C170.276 21.78 170.26 22.004 170.228 22.204H165.176C165.216 22.732 165.412 23.156 165.764 23.476C166.116 23.796 166.548 23.956 167.06 23.956C167.796 23.956 168.316 23.648 168.62 23.032H170.096C169.896 23.64 169.532 24.14 169.004 24.532C168.484 24.916 167.836 25.108 167.06 25.108C166.428 25.108 165.86 24.968 165.356 24.688C164.86 24.4 164.468 24 164.18 23.488C163.9 22.968 163.76 22.368 163.76 21.688C163.76 21.008 163.896 20.412 164.168 19.9C164.448 19.38 164.836 18.98 165.332 18.7C165.836 18.42 166.412 18.28 167.06 18.28C167.684 18.28 168.24 18.416 168.728 18.688C169.216 18.96 169.596 19.344 169.868 19.84C170.14 20.328 170.276 20.892 170.276 21.532ZM168.848 21.1C168.84 20.596 168.66 20.192 168.308 19.888C167.956 19.584 167.52 19.432 167 19.432C166.528 19.432 166.124 19.584 165.788 19.888C165.452 20.184 165.252 20.588 165.188 21.1H168.848Z" fill="white"/>
<path d="M93.872 42.432C93.872 43.328 93.656 44.168 93.224 44.952C92.808 45.736 92.144 46.368 91.232 46.848C90.336 47.328 89.2 47.568 87.824 47.568H85.016V54H81.656V37.248H87.824C89.12 37.248 90.224 37.472 91.136 37.92C92.048 38.368 92.728 38.984 93.176 39.768C93.64 40.552 93.872 41.44 93.872 42.432ZM87.68 44.856C88.608 44.856 89.296 44.648 89.744 44.232C90.192 43.8 90.416 43.2 90.416 42.432C90.416 40.8 89.504 39.984 87.68 39.984H85.016V44.856H87.68ZM99.1376 36.24V54H95.7776V36.24H99.1376ZM101.113 47.304C101.113 45.96 101.377 44.768 101.905 43.728C102.449 42.688 103.177 41.888 104.089 41.328C105.017 40.768 106.049 40.488 107.185 40.488C108.177 40.488 109.041 40.688 109.777 41.088C110.529 41.488 111.129 41.992 111.577 42.6V40.704H114.961V54H111.577V52.056C111.145 52.68 110.545 53.2 109.777 53.616C109.025 54.016 108.153 54.216 107.161 54.216C106.041 54.216 105.017 53.928 104.089 53.352C103.177 52.776 102.449 51.968 101.905 50.928C101.377 49.872 101.113 48.664 101.113 47.304ZM111.577 47.352C111.577 46.536 111.417 45.84 111.097 45.264C110.777 44.672 110.345 44.224 109.801 43.92C109.257 43.6 108.673 43.44 108.049 43.44C107.425 43.44 106.849 43.592 106.321 43.896C105.793 44.2 105.361 44.648 105.025 45.24C104.705 45.816 104.545 46.504 104.545 47.304C104.545 48.104 104.705 48.808 105.025 49.416C105.361 50.008 105.793 50.464 106.321 50.784C106.865 51.104 107.441 51.264 108.049 51.264C108.673 51.264 109.257 51.112 109.801 50.808C110.345 50.488 110.777 50.04 111.097 49.464C111.417 48.872 111.577 48.168 111.577 47.352ZM130.483 40.704L122.251 60.288H118.675L121.555 53.664L116.227 40.704H119.995L123.427 49.992L126.907 40.704H130.483ZM142.837 54.168C141.669 54.168 140.613 53.968 139.669 53.568C138.741 53.168 138.005 52.592 137.461 51.84C136.917 51.088 136.637 50.2 136.621 49.176H140.221C140.269 49.864 140.509 50.408 140.941 50.808C141.389 51.208 141.997 51.408 142.765 51.408C143.549 51.408 144.165 51.224 144.613 50.856C145.061 50.472 145.285 49.976 145.285 49.368C145.285 48.872 145.133 48.464 144.829 48.144C144.525 47.824 144.141 47.576 143.677 47.4C143.229 47.208 142.605 47 141.805 46.776C140.717 46.456 139.829 46.144 139.141 45.84C138.469 45.52 137.885 45.048 137.389 44.424C136.909 43.784 136.669 42.936 136.669 41.88C136.669 40.888 136.917 40.024 137.413 39.288C137.909 38.552 138.605 37.992 139.501 37.608C140.397 37.208 141.421 37.008 142.573 37.008C144.301 37.008 145.701 37.432 146.773 38.28C147.861 39.112 148.461 40.28 148.573 41.784H144.877C144.845 41.208 144.597 40.736 144.133 40.368C143.685 39.984 143.085 39.792 142.333 39.792C141.677 39.792 141.149 39.96 140.749 40.296C140.365 40.632 140.173 41.12 140.173 41.76C140.173 42.208 140.317 42.584 140.605 42.888C140.909 43.176 141.277 43.416 141.709 43.608C142.157 43.784 142.781 43.992 143.581 44.232C144.669 44.552 145.557 44.872 146.245 45.192C146.933 45.512 147.525 45.992 148.021 46.632C148.517 47.272 148.765 48.112 148.765 49.152C148.765 50.048 148.533 50.88 148.069 51.648C147.605 52.416 146.925 53.032 146.029 53.496C145.133 53.944 144.069 54.168 142.837 54.168ZM155.11 43.464V49.896C155.11 50.344 155.214 50.672 155.422 50.88C155.646 51.072 156.014 51.168 156.526 51.168H158.086V54H155.974C153.142 54 151.726 52.624 151.726 49.872V43.464H150.142V40.704H151.726V37.416H155.11V40.704H158.086V43.464H155.11ZM165.927 54.216C164.647 54.216 163.495 53.936 162.471 53.376C161.447 52.8 160.639 51.992 160.047 50.952C159.471 49.912 159.183 48.712 159.183 47.352C159.183 45.992 159.479 44.792 160.071 43.752C160.679 42.712 161.503 41.912 162.543 41.352C163.583 40.776 164.743 40.488 166.023 40.488C167.303 40.488 168.463 40.776 169.503 41.352C170.543 41.912 171.359 42.712 171.951 43.752C172.559 44.792 172.863 45.992 172.863 47.352C172.863 48.712 172.551 49.912 171.927 50.952C171.319 51.992 170.487 52.8 169.431 53.376C168.391 53.936 167.223 54.216 165.927 54.216ZM165.927 51.288C166.535 51.288 167.103 51.144 167.631 50.856C168.175 50.552 168.607 50.104 168.927 49.512C169.247 48.92 169.407 48.2 169.407 47.352C169.407 46.088 169.071 45.12 168.399 44.448C167.743 43.76 166.935 43.416 165.975 43.416C165.015 43.416 164.207 43.76 163.551 44.448C162.911 45.12 162.591 46.088 162.591 47.352C162.591 48.616 162.903 49.592 163.527 50.28C164.167 50.952 164.967 51.288 165.927 51.288ZM178.207 42.768C178.639 42.064 179.199 41.512 179.887 41.112C180.591 40.712 181.391 40.512 182.287 40.512V44.04H181.399C180.343 44.04 179.543 44.288 178.999 44.784C178.471 45.28 178.207 46.144 178.207 47.376V54H174.847V40.704H178.207V42.768ZM196.43 47.064C196.43 47.544 196.398 47.976 196.334 48.36H186.614C186.694 49.32 187.03 50.072 187.622 50.616C188.214 51.16 188.942 51.432 189.806 51.432C191.054 51.432 191.942 50.896 192.47 49.824H196.094C195.71 51.104 194.974 52.16 193.886 52.992C192.798 53.808 191.462 54.216 189.878 54.216C188.598 54.216 187.446 53.936 186.422 53.376C185.414 52.8 184.622 51.992 184.046 50.952C183.486 49.912 183.206 48.712 183.206 47.352C183.206 45.976 183.486 44.768 184.046 43.728C184.606 42.688 185.39 41.888 186.398 41.328C187.406 40.768 188.566 40.488 189.878 40.488C191.142 40.488 192.27 40.76 193.262 41.304C194.27 41.848 195.046 42.624 195.59 43.632C196.15 44.624 196.43 45.768 196.43 47.064ZM192.95 46.104C192.934 45.24 192.622 44.552 192.014 44.04C191.406 43.512 190.662 43.248 189.782 43.248C188.95 43.248 188.246 43.504 187.67 44.016C187.11 44.512 186.766 45.208 186.638 46.104H192.95Z" fill="white"/>
<path d="M65.941 38.0063C65.941 50.2285 56.1138 60.1313 43.9978 60.1313C31.8818 60.1313 22.0547 50.2285 22.0547 38.0063C22.0547 25.7842 31.8818 15.8813 43.9978 15.8813C56.1138 15.8813 65.941 25.7842 65.941 38.0063Z" stroke="#E3E3E3" stroke-width="0.75"/>
<path d="M48.1617 35.3573C46.2119 34.2609 43.0824 32.5002 38.2283 29.7676C37.9011 29.5503 37.5245 29.5218 37.1992 29.6325L45.5275 38.0058L48.1617 35.3573Z" fill="#32BBFF"/>
<path d="M37.2027 29.6323C37.1417 29.6531 37.0823 29.6781 37.0256 29.7084C36.6663 29.9038 36.4023 30.2797 36.4023 30.7552V45.2559C36.4023 45.7314 36.6663 46.1074 37.0256 46.3027C37.0822 46.3329 37.1415 46.3581 37.2025 46.379L45.5309 38.0056L37.2027 29.6323Z" fill="#32BBFF"/>
<path d="M45.5277 38.0059L37.1992 46.3793C37.5246 46.4908 37.9012 46.4645 38.2285 46.244C42.936 43.5938 46.0302 41.854 48.0026 40.7483C48.0575 40.7172 48.1113 40.6869 48.1644 40.6569L45.5277 38.0059Z" fill="#32BBFF"/>
<path d="M36.4023 38.0059V45.2562C36.4023 45.7317 36.6663 46.1077 37.0256 46.303C37.0822 46.3332 37.1415 46.3584 37.2025 46.3793L45.5309 38.0059H36.4023Z" fill="#2C9FD9"/>
<path d="M38.2335 29.7675C37.8449 29.5095 37.3866 29.5169 37.0273 29.7086L45.4063 38.1328L48.1669 35.3572C46.2171 34.2608 43.0876 32.5001 38.2335 29.7675Z" fill="#29CC5E"/>
<path d="M45.4063 37.8784L37.0273 46.3026C37.3866 46.4942 37.8449 46.5053 38.2335 46.2436C42.941 43.5934 46.0352 41.8536 48.0075 40.7478C48.0625 40.7168 48.1163 40.6865 48.1694 40.6565L45.4063 37.8784Z" fill="#D93F21"/>
<path d="M51.6419 38.0058C51.6419 37.604 51.4402 37.1985 51.0406 36.9737C51.0406 36.9737 50.2932 36.5544 48.0023 35.2661L45.2773 38.0058L48.0049 40.7481C50.2707 39.4691 51.0405 39.0378 51.0405 39.0378C51.4402 38.813 51.6419 38.4075 51.6419 38.0058Z" fill="#FFD500"/>
<path d="M51.0406 39.0379C51.4402 38.8131 51.6419 38.4076 51.6419 38.0059H45.2773L48.0049 40.7482C50.2707 39.4692 51.0406 39.0379 51.0406 39.0379Z" fill="#FFAA00"/>
</g>
<defs>
<filter id="filter0_d_3289_1919" x="0.574219" y="0.506348" width="239.363" height="83" filterUnits="userSpaceOnUse" color-interpolation-filters="sRGB">
<feFlood flood-opacity="0" result="BackgroundImageFix"/>
<feColorMatrix in="SourceAlpha" type="matrix" values="0 0 0 0 0 0 0 0 0 0 0 0 0 0 0 0 0 0 127 0" result="hardAlpha"/>
<feOffset dy="4"/>
<feGaussianBlur stdDeviation="2"/>
<feComposite in2="hardAlpha" operator="out"/>
<feColorMatrix type="matrix" values="0 0 0 0 0 0 0 0 0 0 0 0 0 0 0 0 0 0 0.25 0"/>
<feBlend mode="normal" in2="BackgroundImageFix" result="effect1_dropShadow_3289_1919"/>
<feBlend mode="normal" in="SourceGraphic" in2="effect1_dropShadow_3289_1919" result="shape"/>
</filter>
</defs>
</svg>
