<svg width="24" height="24" viewBox="0 0 24 24" fill="none" xmlns="http://www.w3.org/2000/svg">
<path fill-rule="evenodd" clip-rule="evenodd" d="M12 23.25C17.799 23.25 22.5 18.549 22.5 12.75C22.5 6.95101 17.799 2.25 12 2.25C6.20101 2.25 1.5 6.95101 1.5 12.75C1.5 14.6332 1.99575 16.4006 2.86385 17.9288L1.5 23.25L6.98615 21.9778C8.47605 22.7891 10.1842 23.25 12 23.25ZM12 21.6347C16.9069 21.6347 20.8847 17.6569 20.8847 12.75C20.8847 7.8432 16.9069 3.86539 12 3.86539C7.09316 3.86539 3.11539 7.8432 3.11539 12.75C3.11539 14.6446 3.70837 16.4006 4.71888 17.8426L3.92308 20.8269L6.95995 20.0677C8.39205 21.056 10.1285 21.6347 12 21.6347Z" fill="#BFC8D0"/>
<path d="M21 12C21 16.9705 16.9705 21 12 21C10.1041 21 8.34518 20.4138 6.8945 19.4128L3.81818 20.1818L4.62432 17.1588C3.60069 15.698 3 13.9192 3 12C3 7.02944 7.02944 3 12 3C16.9705 3 21 7.02944 21 12Z" fill="url(#paint0_linear_3811_1784)"/>
<path fill-rule="evenodd" clip-rule="evenodd" d="M12 22.5C17.799 22.5 22.5 17.799 22.5 12C22.5 6.20101 17.799 1.5 12 1.5C6.20101 1.5 1.5 6.20101 1.5 12C1.5 13.8832 1.99575 15.6506 2.86385 17.1788L1.5 22.5L6.98615 21.2278C8.47605 22.0391 10.1842 22.5 12 22.5ZM12 20.8847C16.9069 20.8847 20.8847 16.9069 20.8847 12C20.8847 7.09316 16.9069 3.11539 12 3.11539C7.09316 3.11539 3.11539 7.09316 3.11539 12C3.11539 13.8946 3.70837 15.6506 4.71888 17.0926L3.92308 20.0769L6.95995 19.3177C8.39205 20.306 10.1285 20.8847 12 20.8847Z" fill="white"/>
<path d="M9.375 7.12504C9.1254 6.6236 8.74238 6.668 8.35553 6.668C7.6641 6.668 6.58594 7.49621 6.58594 9.03762C6.58594 10.3008 7.14259 11.6836 9.0183 13.7522C10.8285 15.7485 13.207 16.7812 15.1817 16.746C17.1562 16.7109 17.5625 15.0117 17.5625 14.4378C17.5625 14.1835 17.4046 14.0566 17.296 14.0221C16.6231 13.6992 15.382 13.0974 15.0996 12.9844C14.8172 12.8714 14.6698 13.0243 14.5781 13.1075C14.3221 13.3515 13.8145 14.0707 13.6406 14.2325C13.4668 14.3943 13.2077 14.3124 13.0999 14.2512C12.703 14.092 11.6272 13.6134 10.7696 12.7821C9.70897 11.754 9.64672 11.4002 9.44692 11.0853C9.2871 10.8334 9.4044 10.6789 9.4629 10.6113C9.69142 10.3477 10.0069 9.94062 10.1485 9.73835C10.2899 9.536 10.1776 9.22887 10.1102 9.03762C9.82035 8.21487 9.57472 7.52615 9.375 7.12504Z" fill="white"/>
<defs>
<linearGradient id="paint0_linear_3811_1784" x1="19.875" y1="5.25" x2="3" y2="21" gradientUnits="userSpaceOnUse">
<stop stop-color="#5BD066"/>
<stop offset="1" stop-color="#27B43E"/>
</linearGradient>
</defs>
</svg>
